<svg width="1190" height="223" viewBox="0 0 1190 223" fill="none" xmlns="http://www.w3.org/2000/svg">
<rect width="1200" height="223" fill="#098073"/>
<path d="M251.866 1.12048H1098.89V223H168.92L251.866 1.12048Z" fill="#109385"/>
<path d="M825.859 0H1200V223H1066.92C946.75 198.733 852.128 111.196 825.859 0Z" fill="#098073"/>
<path d="M251.867 0H685.974L717.778 43.1432L613.32 165.849H190.111L251.867 0Z" fill="#1DA799"/>
<path d="M354.15 0H443.794V42.5829H307.568L354.15 0Z" fill="#098073"/>
<path d="M443.794 42.583V165.849H307.568L443.794 42.583Z" fill="#109385"/>
<path d="M574.572 42.583V165.849H438.346L574.572 42.583Z" fill="#098073"/>
<path d="M487.386 0H574.571V42.5829H440.805L487.386 0Z" fill="#109385"/>
<path fill-rule="evenodd" clip-rule="evenodd" d="M257.175 0C260.808 11.6822 262.765 24.1025 262.765 36.9799C262.765 105.677 207.075 161.367 138.378 161.367H117.121C63.1597 161.367 17.2236 127.005 0 78.9693V0L257.175 0Z" fill="#109385"/>
</svg>
