<svg width="93" height="69" viewBox="0 0 93 69" fill="none" xmlns="http://www.w3.org/2000/svg">
<path fill-rule="evenodd" clip-rule="evenodd" d="M16.6356 10.2045C16.6356 10.2045 16.5719 9.92686 16.5078 9.58691C16.5748 10.1207 16.6344 10.6542 16.6819 11.1878L16.6519 10.5436L16.6356 10.2045Z" fill="#269D8C"/>
<path fill-rule="evenodd" clip-rule="evenodd" d="M16.7122 11.7477C16.7122 11.7477 16.7194 11.7676 16.7322 11.8021C16.7311 11.7888 16.7301 11.7752 16.729 11.7616C16.7162 11.59 16.7041 11.4196 16.6875 11.248L16.7122 11.7477Z" fill="#269D8C"/>
<path fill-rule="evenodd" clip-rule="evenodd" d="M16.5092 9.58785C16.469 9.26853 16.4256 8.9492 16.3789 8.62988C16.3864 8.88538 16.4479 9.26434 16.5092 9.58785Z" fill="#269D8C"/>
<path fill-rule="evenodd" clip-rule="evenodd" d="M84.7204 31.6568C84.8258 32.5644 84.9481 33.4722 85.0898 34.3823L87.5637 34.422C87.7081 33.4994 87.8329 32.5795 87.9406 31.6568C87.9626 31.4808 87.9773 31.3045 87.9969 31.1285L84.4512 28.981C84.5271 29.8737 84.6129 30.7639 84.7204 31.6568Z" fill="#269D8C"/>
<path fill-rule="evenodd" clip-rule="evenodd" d="M89.8691 32.2603C89.9426 32.9945 90.0307 33.7285 90.1359 34.4626L92.6564 34.5021C92.6807 34.3311 92.7028 34.1599 92.7249 33.9888L89.8691 32.2603Z" fill="#E3902E"/>
<path fill-rule="evenodd" clip-rule="evenodd" d="M68.6195 23.8628C68.4872 25.1624 68.453 26.462 68.5068 27.7588C68.5386 29.0586 68.6147 30.358 68.7321 31.6575C68.8053 32.4808 68.8986 33.3044 69.011 34.1277L71.6221 34.1674C71.7368 33.3315 71.8323 32.4932 71.9082 31.6575C72.0258 30.358 72.1015 29.0586 72.1332 27.7588C72.1873 26.462 72.1528 25.1624 72.0208 23.8628C71.9859 23.5178 71.9437 23.1731 71.897 22.8283L68.934 21.5518C68.8111 22.322 68.697 23.0924 68.6195 23.8628Z" fill="#E3902E"/>
<path fill-rule="evenodd" clip-rule="evenodd" d="M71.2512 18.7042C71.1233 17.8244 71.0183 16.9451 70.9779 16.0653C70.8385 13.4687 71.0439 10.8697 71.4354 8.27057C71.5186 7.69772 71.6044 7.12487 71.6826 6.55432C71.5873 6.53216 71.5014 6.50979 71.428 6.48742L68.8809 6.00635C68.8955 6.11046 68.9101 6.21709 68.925 6.32121C69.0106 6.97099 69.1109 7.62099 69.2037 8.27057C69.5954 10.8697 69.8009 13.4687 69.6614 16.0653C69.6352 16.6344 69.5797 17.2035 69.5115 17.7725L69.6526 17.8463C70.1862 18.1307 70.7188 18.4169 71.2512 18.7042Z" fill="#E3902E"/>
<path fill-rule="evenodd" clip-rule="evenodd" d="M78.8621 27.7585C78.8938 29.058 78.9722 30.3576 79.0898 31.6572C79.168 32.5351 79.2685 33.4129 79.3908 34.2908L81.9575 34.3331C82.0823 33.4403 82.185 32.5499 82.2634 31.6572C82.381 30.3701 82.4567 29.0827 82.4885 27.7957L80.1152 26.3587L78.8557 25.8252C78.8365 26.4708 78.8359 27.1147 78.8621 27.7585Z" fill="#E3902E"/>
<path fill-rule="evenodd" clip-rule="evenodd" d="M49.8025 8.29732L50.2858 8.50952L50.3221 8.52541C50.3343 8.44074 50.3452 8.35586 50.3578 8.27098C50.451 7.6214 50.5538 6.9714 50.6394 6.32162C50.7299 5.67183 50.8155 5.02225 50.884 4.37247C51.009 3.2389 51.075 2.10553 51.141 0.972171L49.6313 0.476259L47.2871 0C47.297 0.158683 47.3065 0.317576 47.3164 0.476259C47.3948 1.77583 47.4583 3.0729 47.6027 4.37247C47.6687 5.02225 47.7568 5.67183 47.8474 6.32162C47.913 6.81899 47.9866 7.31616 48.0596 7.81353C48.4136 7.86956 48.7639 7.9488 49.1071 8.05229C49.3427 8.12275 49.5741 8.20658 49.8025 8.29732Z" fill="#E3902E"/>
<path fill-rule="evenodd" clip-rule="evenodd" d="M48.5872 12.7808C48.6392 13.8761 48.6448 14.9712 48.587 16.0657C48.4672 18.6648 47.8065 21.2639 47.5422 23.8629C47.41 25.1625 47.3758 26.462 47.4298 27.7591C47.4616 29.0587 47.5398 30.358 47.6547 31.6578C47.7209 32.3693 47.7968 33.0786 47.8896 33.7905L50.591 33.8328C50.6865 33.1085 50.7672 32.3843 50.8309 31.6578C50.9483 30.358 51.0267 29.0587 51.056 27.7591C51.1098 26.462 51.0756 25.1625 50.9436 23.8629C50.6816 21.2639 50.0209 18.6648 49.901 16.0657C49.8522 15.1562 49.8478 14.2465 49.8769 13.3367L49.7535 13.2836L48.5872 12.7808Z" fill="#E3902E"/>
<path fill-rule="evenodd" clip-rule="evenodd" d="M60.2415 13.0968C60.3029 11.4885 60.4731 9.87969 60.7171 8.2707C60.81 7.62112 60.9102 6.97112 60.9958 6.32134C61.0717 5.78068 61.1427 5.24003 61.204 4.69708C60.1493 4.43156 58.6933 3.99753 57.9004 3.74707C57.9202 3.9553 57.9373 4.16374 57.9594 4.37219C58.0279 5.02197 58.1135 5.67155 58.2065 6.32134C58.2921 6.97112 58.3924 7.62112 58.4854 8.2707C58.696 9.66853 58.8501 11.0666 58.9283 12.4642C59.0855 12.5397 59.2439 12.6129 59.4005 12.69C59.6806 12.8261 59.9611 12.9614 60.2415 13.0968Z" fill="#E3902E"/>
<path fill-rule="evenodd" clip-rule="evenodd" d="M57.9006 23.8632C57.7684 25.1628 57.7342 26.4624 57.7882 27.7592C57.82 29.059 57.8959 30.3584 58.0133 31.6579C58.0818 32.4242 58.1674 33.1906 58.2703 33.9571L60.9276 33.9991C61.0303 33.218 61.1186 32.4392 61.1894 31.6579C61.3045 30.3584 61.3828 29.059 61.4144 27.7592C61.4685 26.4624 61.4342 25.1628 61.302 23.8632C61.0992 21.8693 60.6652 19.8754 60.4201 17.8816L58.8561 17.2075C58.6358 19.4259 58.1242 21.6446 57.9006 23.8632Z" fill="#E3902E"/>
<path fill-rule="evenodd" clip-rule="evenodd" d="M26.4671 23.8634C26.3349 25.163 26.2982 26.4625 26.352 27.7594C26.384 29.0592 26.4622 30.3585 26.5795 31.6581C26.6336 32.2583 26.6969 32.8561 26.7705 33.4536L29.5574 33.4983C29.6335 32.8857 29.6995 32.2732 29.7534 31.6581C29.8707 30.3585 29.9491 29.0592 29.9809 27.7594C30.0347 26.4625 29.998 25.163 29.866 23.8634C29.7286 22.4994 29.4821 21.1354 29.2608 19.7715L26.9015 20.8101C26.7332 21.8281 26.5694 22.8456 26.4671 23.8634Z" fill="#E3902E"/>
<path fill-rule="evenodd" clip-rule="evenodd" d="M29.2831 8.27112C29.376 7.62154 29.4764 6.97155 29.562 6.32176C29.6526 5.67197 29.7407 5.0224 29.8067 4.37261C29.8312 4.1418 29.8533 3.90868 29.8752 3.67578L28.5001 4.23358L27.0906 3.78241C27.0906 3.78241 26.6331 4.06005 26.5107 4.21622C26.5155 4.26828 26.5204 4.32055 26.5254 4.37261C26.5914 5.0224 26.6795 5.67197 26.77 6.32176C26.8556 6.97155 26.9561 7.62154 27.0491 8.27112C27.4429 10.8703 27.6486 13.4692 27.5089 16.0658C27.506 16.1311 27.499 16.1963 27.4953 16.2615L28.8052 15.5862C28.7134 13.1491 28.9133 10.7103 29.2831 8.27112Z" fill="#E3902E"/>
<path fill-rule="evenodd" clip-rule="evenodd" d="M39.6391 8.27072C39.732 7.62114 39.8324 6.97114 39.918 6.32136C40.0086 5.67157 40.0967 5.02199 40.1627 4.37221C40.2607 3.49663 40.3219 2.61875 40.3733 1.74316C39.0516 1.83515 36.8275 2.00116 36.8789 2.05321C36.8913 2.06555 36.8201 2.09294 36.6953 2.13015C36.7444 2.87904 36.8005 3.62562 36.8839 4.37221C36.9499 5.02199 37.0379 5.67157 37.1285 6.32136C37.2141 6.97114 37.3144 7.62114 37.4076 8.27072C37.5518 9.2293 37.6704 10.1879 37.7562 11.1465C38.293 10.8927 38.8297 10.6391 39.3664 10.385C39.4419 9.68026 39.5329 8.97549 39.6391 8.27072Z" fill="#E3902E"/>
<path fill-rule="evenodd" clip-rule="evenodd" d="M37.8639 16.0657C37.7441 18.6649 37.0833 21.2638 36.8214 23.863C36.6896 25.1625 36.6551 26.4621 36.7089 27.759C36.7409 29.0585 36.8166 30.3581 36.934 31.6577C36.9928 32.3125 37.0637 32.9648 37.1446 33.6194L39.8925 33.6639C39.9781 32.9945 40.049 32.3273 40.1103 31.6577C40.2277 30.3581 40.3036 29.0585 40.3351 27.759C40.3892 26.4621 40.3549 25.1625 40.2229 23.863C39.9609 21.2638 39.3002 18.6649 39.1804 16.0657C39.1686 15.8485 39.1628 15.6313 39.156 15.4141L37.8672 15.9815C37.8658 16.0097 37.8656 16.0377 37.8639 16.0657Z" fill="#E3902E"/>
<path fill-rule="evenodd" clip-rule="evenodd" d="M5.5014 31.6576C5.54554 32.1437 5.5969 32.6323 5.65301 33.1184L8.51865 33.1629C8.57723 32.662 8.63107 32.161 8.67748 31.6576C8.76618 30.6693 8.82724 29.6815 8.86602 28.6953L5.39062 30.1987C5.42301 30.685 5.45849 31.1713 5.5014 31.6576Z" fill="#E3902E"/>
<path fill-rule="evenodd" clip-rule="evenodd" d="M67.108 16.5145L67.2999 16.6151C67.2873 16.4046 67.2749 16.1942 67.2621 15.9837C67.1837 14.6866 67.1177 13.3871 66.9758 12.0875C66.9071 11.4377 66.8215 10.7879 66.7287 10.1383C66.6431 9.48855 66.5428 8.83876 66.4498 8.18898C66.2687 6.98369 66.1292 5.7759 66.0436 4.5679L64.6292 4.52588C64.5434 5.74851 64.4016 6.96864 64.2181 8.18898C64.125 8.83876 64.0248 9.48855 63.9392 10.1383C63.8486 10.7879 63.7603 11.4377 63.6943 12.0875C63.5982 12.9526 63.5377 13.8177 63.4854 14.682C63.8399 14.8593 64.1947 15.0368 64.5479 15.2177C65.4009 15.6506 66.2588 16.0726 67.108 16.5145Z" fill="#269D8C"/>
<path fill-rule="evenodd" clip-rule="evenodd" d="M63.1559 23.7797C63.2294 26.3788 63.4154 28.9755 63.7236 31.5744C63.8167 32.3705 63.9243 33.1667 64.0444 33.9628L66.6184 34.0048C66.7407 33.1938 66.8484 32.3854 66.9439 31.5744C67.2521 28.9755 67.4381 26.3788 67.5116 23.7797C67.5349 22.8311 67.5281 21.883 67.5033 20.9347L63.2343 19.0942C63.1605 20.656 63.1176 22.2179 63.1559 23.7797Z" fill="#269D8C"/>
<path fill-rule="evenodd" clip-rule="evenodd" d="M73.5115 23.7805C73.5874 26.3796 73.7735 28.9762 74.0792 31.5752C74.1795 32.4259 74.2946 33.2791 74.4243 34.1296L76.9521 34.1693C77.0841 33.3038 77.1992 32.4407 77.3019 31.5752C77.547 29.5077 77.7118 27.4419 77.8071 25.3748L73.5078 23.5225C73.5095 23.6086 73.5095 23.6945 73.5115 23.7805Z" fill="#269D8C"/>
<path fill-rule="evenodd" clip-rule="evenodd" d="M77.8305 20.038L77.3683 19.2542L76.8495 11.9654L76.5535 6.7797C75.9858 6.5491 75.4154 6.31828 74.8477 6.08789C74.772 6.78974 74.6813 7.48907 74.5763 8.18841C74.4808 8.83819 74.3803 9.48798 74.2947 10.1378C74.2044 10.7873 74.1188 11.4371 74.0501 12.0869C73.9081 13.3865 73.8421 14.6861 73.7638 15.9831C73.6839 17.3082 73.6039 18.6335 73.5527 19.9584C75.0025 20.7581 76.4458 21.5732 77.8813 22.407C77.8788 21.6173 77.8615 20.8277 77.8305 20.038Z" fill="#269D8C"/>
<path fill-rule="evenodd" clip-rule="evenodd" d="M43.7078 8.39498L44.0479 8.25323C44.2779 8.16668 44.5104 8.0864 44.747 8.02033C44.9393 7.96639 45.1336 7.92123 45.3291 7.88151C44.9962 5.58865 44.8163 3.29579 44.8935 1.00293C44.6342 1.06481 44.1546 1.1543 43.6335 1.24336C43.6921 3.55733 43.4914 5.87361 43.1415 8.19009C43.118 8.35463 43.0935 8.51917 43.0693 8.68371L43.5229 8.47777L43.7078 8.39498Z" fill="#269D8C"/>
<path fill-rule="evenodd" clip-rule="evenodd" d="M45.3449 12.6897L44.6885 12.9786L42.4549 13.9621C42.4089 14.6363 42.3716 15.3103 42.3309 15.9833C42.1744 18.5825 42.0151 21.1816 42.0789 23.7806C42.1523 26.3797 42.3384 28.9764 42.6465 31.5755C42.7274 32.2598 42.818 32.9443 42.9157 33.6288L45.5926 33.671C45.6954 32.9717 45.7861 32.2748 45.8693 31.5755C46.175 28.9764 46.361 26.3797 46.4369 23.7806C46.5007 21.1816 46.3414 18.5825 46.1849 15.9833C46.1141 14.8132 46.0506 13.6407 45.9351 12.4683C45.84 12.4944 45.7465 12.5262 45.6535 12.559C45.5578 12.5981 45.4585 12.6382 45.3449 12.6897Z" fill="#269D8C"/>
<path fill-rule="evenodd" clip-rule="evenodd" d="M52.685 15.9829C52.5284 18.582 52.3719 21.1809 52.4354 23.7801C52.5088 26.3792 52.6949 28.9757 53.0031 31.5748C53.0889 32.3139 53.1867 33.0529 53.2968 33.792L55.9223 33.8342C56.0348 33.0801 56.1354 32.3289 56.2233 31.5748C56.5315 28.9757 56.7178 26.3792 56.791 23.7801C56.8527 21.2583 56.7048 18.7365 56.5529 16.2145L52.7698 14.584C52.7407 15.0504 52.7133 15.5169 52.685 15.9829Z" fill="#269D8C"/>
<path fill-rule="evenodd" clip-rule="evenodd" d="M56.1467 11.1612C56.1034 10.8202 56.057 10.479 56.0095 10.138C55.9239 9.4882 55.8237 8.83841 55.7304 8.18863C55.4295 6.19954 55.2411 4.21046 55.2314 2.21908C54.9476 2.07043 54.7541 1.97112 54.7541 1.97112L53.9956 1.74805C54.0152 3.8956 53.8217 6.04086 53.4989 8.18863C53.4203 8.73722 53.3382 9.28582 53.2627 9.83463C53.5787 9.97575 53.8952 10.1165 54.2095 10.2618L56.1467 11.1612Z" fill="#269D8C"/>
<path fill-rule="evenodd" clip-rule="evenodd" d="M25.1953 17.4875C25.1664 16.9861 25.1367 16.4848 25.1064 15.9834C25.028 14.6864 24.9644 13.3868 24.8202 12.0872C24.754 11.4376 24.666 10.7878 24.5754 10.1381C24.4898 9.48827 24.3895 8.83848 24.2965 8.1887C24.0958 6.87428 23.9464 5.55736 23.8633 4.24294C23.3004 4.23311 22.8723 4.22559 22.8723 4.22559L22.4883 4.33472C22.4051 5.61945 22.2582 6.90397 22.0623 8.1887C21.9695 8.83848 21.869 9.48827 21.7834 10.1381C21.6928 10.7878 21.6072 11.4376 21.5387 12.0872C21.3968 13.3868 21.3308 14.6864 21.2524 15.9834C21.1765 17.2443 21.1004 18.5052 21.0488 19.7659C22.3102 19.0586 23.576 18.3626 24.8454 17.6742L25.1953 17.4875Z" fill="#269D8C"/>
<path fill-rule="evenodd" clip-rule="evenodd" d="M21.0003 23.7802C21.0737 26.3793 21.2622 28.9759 21.568 31.5749C21.6364 32.1477 21.7099 32.7181 21.7907 33.2911L24.5629 33.3357C24.6463 32.748 24.7222 32.1628 24.7907 31.5749C25.0988 28.9759 25.2849 26.3793 25.3583 23.7802C25.3771 23.016 25.3748 22.2515 25.3608 21.4873L20.9951 23.4089C20.997 23.5324 20.9972 23.6564 21.0003 23.7802Z" fill="#269D8C"/>
<path fill-rule="evenodd" clip-rule="evenodd" d="M35.2066 12.3694C35.1969 12.2751 35.1896 12.181 35.1793 12.0867C35.1108 11.4371 35.0252 10.7873 34.9322 10.1375C34.8466 9.48775 34.7463 8.83797 34.6531 8.18818C34.3769 6.35548 34.1958 4.52508 34.1615 2.69238C33.8824 2.75678 33.6989 2.7965 33.6989 2.7965L32.9084 2.92069C32.8645 4.67645 32.6858 6.43242 32.4216 8.18818C32.3287 8.83797 32.2283 9.48775 32.1425 10.1375C32.0521 10.7873 31.964 11.4371 31.898 12.0867C31.8238 12.7551 31.7706 13.4233 31.7256 14.0912C32.8411 13.5328 33.9617 12.9865 35.0785 12.4314C35.121 12.4105 35.1639 12.3903 35.2066 12.3694Z" fill="#269D8C"/>
<path fill-rule="evenodd" clip-rule="evenodd" d="M31.358 23.7802C31.4314 26.3793 31.6175 28.976 31.9259 31.5749C31.9991 32.2023 32.08 32.8299 32.1703 33.4574L34.8963 33.4994C34.9893 32.8571 35.0725 32.2172 35.1459 31.5749C35.4541 28.976 35.6404 26.3793 35.7136 23.7802C35.7689 21.5241 35.6581 19.2681 35.5255 17.0122L31.45 18.8064C31.3679 20.4644 31.3176 22.1223 31.358 23.7802Z" fill="#269D8C"/>
<path fill-rule="evenodd" clip-rule="evenodd" d="M0.585606 33.0388L3.45104 33.0835C3.51457 32.6075 3.57583 32.1335 3.63215 31.6575C3.66392 31.3922 3.68846 31.1267 3.71775 30.8614L0.5 32.3742C0.527023 32.595 0.556108 32.8157 0.585606 33.0388Z" fill="#269D8C"/>
<path fill-rule="evenodd" clip-rule="evenodd" d="M10.848 31.5749C10.909 32.0909 10.975 32.6042 11.046 33.1199L13.865 33.1647C13.9383 32.6338 14.0067 32.1055 14.0705 31.5749C14.2797 29.7976 14.4286 28.0216 14.5288 26.2451L10.5039 27.986C10.5951 29.1827 10.7069 30.3778 10.848 31.5749Z" fill="#269D8C"/>
<path fill-rule="evenodd" clip-rule="evenodd" d="M18.1026 16.0649C17.9632 13.4683 18.1686 10.8692 18.5603 8.27022C18.6532 7.62043 18.7534 6.97064 18.8417 6.32086C18.8832 6.01582 18.9248 5.71079 18.964 5.40576L18.3425 5.58431L17.8235 6.41264C17.8235 6.41264 16.5611 8.13871 16.4142 8.36451C16.3849 8.40904 16.375 8.50333 16.38 8.62981C16.4266 8.94718 16.468 9.26706 16.5097 9.58714C16.5732 9.92688 16.637 10.2047 16.637 10.2047L16.6527 10.543L16.6846 11.2095C16.7007 11.3935 16.7135 11.5771 16.7267 11.7608C16.7277 11.7746 16.729 11.788 16.73 11.8018C16.8179 12.0447 17.1826 13.0343 17.3784 13.0987C17.6009 13.1758 17.8235 15.2788 17.8235 15.2788L17.2292 18.3591L16.2651 20.6132L16.1671 20.8811C16.0639 21.5062 15.9647 22.1304 15.8789 22.7549C16.8332 22.1844 17.7913 21.623 18.7528 21.0696C18.4789 19.4015 18.1796 17.7331 18.1026 16.0649Z" fill="#E3902E"/>
<path fill-rule="evenodd" clip-rule="evenodd" d="M15.6198 25.7732C15.6 26.4354 15.6041 27.0973 15.6315 27.7588C15.6633 29.0583 15.7415 30.3577 15.8564 31.6575C15.9055 32.2004 15.9642 32.7411 16.028 33.2842L18.8565 33.3288C18.9227 32.7708 18.9838 32.2153 19.0327 31.6575C19.15 30.3577 19.2284 29.0583 19.2579 27.7588C19.3068 26.5773 19.2785 25.394 19.174 24.2104L15.8135 25.6894L15.6198 25.7732Z" fill="#E3902E"/>
<path fill-rule="evenodd" clip-rule="evenodd" d="M16.6826 11.1885L16.6837 11.2106C16.685 11.2238 16.6856 11.2367 16.6869 11.2499L16.685 11.211C16.6843 11.2036 16.6833 11.1961 16.6826 11.1885Z" fill="#E3902E"/>
<path fill-rule="evenodd" clip-rule="evenodd" d="M16.6523 10.5439L16.6832 11.1889C16.6836 11.1962 16.6847 11.2037 16.6853 11.211L16.6523 10.5439Z" fill="#E3902E"/>
<path fill-rule="evenodd" clip-rule="evenodd" d="M16.6865 11.2487C16.7031 11.4203 16.7152 11.5907 16.728 11.7623C16.7144 11.5783 16.7012 11.3946 16.6846 11.2104L16.6865 11.2487Z" fill="#E3902E"/>
<path fill-rule="evenodd" clip-rule="evenodd" d="M8.71257 42.2982C8.71257 42.1209 8.77649 41.9691 8.90432 41.8431C9.03215 41.7171 9.18587 41.6541 9.3659 41.6541C9.54573 41.6541 9.69966 41.7171 9.82749 41.8431C9.95532 41.9691 10.019 42.1209 10.019 42.2982C10.019 42.4757 9.95532 42.6273 9.82749 42.7533C9.69966 42.8793 9.54573 42.9423 9.3659 42.9423C9.18587 42.9423 9.03215 42.8793 8.90432 42.7533C8.77649 42.6273 8.71257 42.4757 8.71257 42.2982ZM6.82369 42.2982C6.82369 42.1209 6.8874 41.9691 7.01523 41.8431C7.14306 41.7171 7.29679 41.6541 7.47682 41.6541C7.65664 41.6541 7.81057 41.7171 7.9384 41.8431C8.06623 41.9691 8.13015 42.1209 8.13015 42.2982C8.13015 42.4757 8.06623 42.6273 7.9384 42.7533C7.81057 42.8793 7.65664 42.9423 7.47682 42.9423C7.29679 42.9423 7.14306 42.8793 7.01523 42.7533C6.8874 42.6273 6.82369 42.4757 6.82369 42.2982ZM9.87722 49.1736V46.9666C9.87722 46.5638 9.74261 46.2194 9.47421 45.9335C9.20539 45.6478 8.83054 45.5047 8.34984 45.5047C8.14248 45.5047 7.93491 45.5469 7.72775 45.6311C7.52018 45.7156 7.33152 45.8352 7.16197 45.9898C6.99221 46.1444 6.85555 46.3367 6.75197 46.5661C6.64798 46.7958 6.59639 47.0556 6.59639 47.3462C6.59639 47.6647 6.65517 47.9388 6.77293 48.1684C6.8909 48.398 7.05099 48.5878 7.25383 48.7376C7.45647 48.8877 7.68973 48.9977 7.95381 49.0681C8.2179 49.1386 8.50069 49.1736 8.80238 49.1736H9.87722ZM11.0133 50.2937C10.9944 50.8351 10.8902 51.3624 10.7009 51.876C10.5114 52.3893 10.2297 52.8443 9.85564 53.2413C9.48161 53.638 9.01303 53.9576 8.44993 54.2003C7.8862 54.443 7.21643 54.5644 6.44 54.5644C5.62555 54.5644 4.93214 54.4597 4.35937 54.2493C3.7864 54.0394 3.3203 53.7685 2.96065 53.4374C2.60059 53.1059 2.33773 52.7347 2.17229 52.324C2.00644 51.9131 1.92383 51.507 1.92383 51.1058C1.92383 50.7699 1.94993 50.4548 2.00295 50.1606C2.05556 49.8666 2.12277 49.603 2.20435 49.3694C2.28574 49.1363 2.36712 48.9331 2.44871 48.7605C2.53009 48.5878 2.59956 48.4594 2.6571 48.3753C2.82007 48.45 2.97544 48.5246 3.1228 48.5994C3.27015 48.6742 3.41504 48.7487 3.55705 48.8233C3.45265 49.0383 3.36756 49.2484 3.30139 49.4534C3.23521 49.6403 3.17829 49.8411 3.13102 50.0556C3.08334 50.2706 3.05991 50.4803 3.05991 50.6858C3.05991 51.0684 3.12609 51.4256 3.25844 51.7571C3.39058 52.0882 3.59836 52.3753 3.88197 52.6182C4.16537 52.8608 4.52687 53.0545 4.96626 53.1993C5.40565 53.344 5.93711 53.4164 6.56064 53.4164C7.18417 53.4164 7.70638 53.3254 8.12686 53.1432C8.54713 52.9613 8.88746 52.7232 9.14723 52.4292C9.40721 52.1352 9.59854 51.801 9.72124 51.428C9.84413 51.0546 9.91483 50.6765 9.93394 50.2937H8.95405C8.30072 50.2937 7.75138 50.2121 7.30645 50.0485C6.8613 49.8854 6.50165 49.6658 6.22709 49.3904C5.95231 49.1153 5.75584 48.8024 5.63767 48.4523C5.5193 48.1023 5.46031 47.736 5.46031 47.353C5.46031 46.9519 5.53841 46.574 5.69439 46.219C5.85079 45.8644 6.06843 45.5537 6.34772 45.2877C6.62702 45.0217 6.95152 44.8115 7.32083 44.6577C7.68993 44.5035 8.0876 44.4266 8.51363 44.4266C8.90185 44.4266 9.25225 44.4922 9.56463 44.6233C9.87722 44.7542 10.1399 44.9347 10.3528 45.1639C10.5661 45.3933 10.7293 45.6699 10.8429 45.9926C10.9566 46.3156 11.0133 46.6643 11.0133 47.0388V49.1736H12.2916C12.5092 49.1736 12.6182 49.2567 12.6182 49.4224V49.9616C12.6182 50.1831 12.5092 50.2937 12.2916 50.2937H11.0133Z" fill="#646460"/>
<path fill-rule="evenodd" clip-rule="evenodd" d="M14.3932 52.5482C14.3932 52.3707 14.4571 52.2191 14.5849 52.0931C14.7127 51.967 14.8665 51.904 15.0465 51.904C15.2263 51.904 15.3802 51.967 15.5081 52.0931C15.6359 52.2191 15.6996 52.3707 15.6996 52.5482C15.6996 52.7255 15.6359 52.8772 15.5081 53.0033C15.3802 53.1293 15.2263 53.1923 15.0465 53.1923C14.8665 53.1923 14.7127 53.1293 14.5849 53.0033C14.4571 52.8772 14.3932 52.7255 14.3932 52.5482ZM12.5043 52.5482C12.5043 52.3707 12.5682 52.2191 12.6958 52.0931C12.8237 51.967 12.9776 51.904 13.1574 51.904C13.3372 51.904 13.4912 51.967 13.619 52.0931C13.7468 52.2191 13.8109 52.3707 13.8109 52.5482C13.8109 52.7255 13.7468 52.8772 13.619 53.0033C13.4912 53.1293 13.3372 53.1923 13.1574 53.1923C12.9776 53.1923 12.8237 53.1293 12.6958 53.0033C12.5682 52.8772 12.5043 52.7255 12.5043 52.5482ZM12.0639 50.2938C11.8462 50.2938 11.7373 50.2109 11.7373 50.0447V49.5054C11.7373 49.2843 11.8462 49.1737 12.0639 49.1737H14.1942V44.9727H15.3305V50.2938H12.0639Z" fill="#646460"/>
<path fill-rule="evenodd" clip-rule="evenodd" d="M21.7357 49.1728V47.5563C21.7357 46.9097 21.5937 46.4062 21.3097 46.0453C21.0256 45.6845 20.6422 45.5041 20.1592 45.5041C19.9414 45.5041 19.7282 45.5463 19.5203 45.6306C19.3119 45.7151 19.1296 45.8391 18.9734 46.003C18.8172 46.1671 18.6914 46.3614 18.5971 46.5864C18.5023 46.8115 18.4549 47.0645 18.4549 47.3454C18.4549 47.6736 18.5069 47.9547 18.6113 48.1889C18.7153 48.4231 18.8573 48.6128 19.0373 48.7581C19.2169 48.9034 19.4206 49.0087 19.6481 49.0746C19.8752 49.1402 20.1167 49.1728 20.3723 49.1728H21.7357ZM24.4057 49.1728C24.6236 49.1728 24.7325 49.2559 24.7325 49.4219V49.961C24.7325 50.1823 24.6236 50.2929 24.4057 50.2929H22.8436C22.834 50.8718 22.7392 51.3664 22.5596 51.7774C22.3796 52.1881 22.1309 52.524 21.8138 52.7854C21.4965 53.0466 21.1202 53.2358 20.6849 53.3526C20.2492 53.4693 19.7708 53.5276 19.2502 53.5276C19.0515 53.5276 18.8476 53.5228 18.6396 53.5136C18.4312 53.5041 18.2183 53.4808 18.0005 53.4435C18.0194 53.2474 18.036 53.0656 18.0502 52.8975C18.0644 52.7295 18.0808 52.5566 18.0999 52.3794C18.3176 52.398 18.5305 52.4144 18.7391 52.4284C18.9473 52.4424 19.146 52.4495 19.3355 52.4495C19.6573 52.4495 19.9627 52.4213 20.2515 52.3654C20.5404 52.3092 20.7934 52.2019 21.0115 52.0434C21.2291 51.8845 21.4042 51.6653 21.5368 51.3853C21.6695 51.1051 21.7402 50.7409 21.7499 50.2929H20.4292C19.8704 50.2929 19.3945 50.2137 19.0017 50.0551C18.6088 49.8962 18.2917 49.6909 18.0502 49.4387C17.8089 49.1866 17.6334 48.8997 17.5247 48.5775C17.4156 48.2556 17.3613 47.9314 17.3613 47.6045C17.3613 47.1752 17.4324 46.7667 17.5744 46.3793C17.7165 45.9921 17.9152 45.6535 18.1708 45.3639C18.4265 45.0748 18.7319 44.846 19.0868 44.6778C19.4422 44.5099 19.8277 44.4258 20.2445 44.4258C20.6516 44.4258 21.016 44.4914 21.338 44.6225C21.6599 44.7534 21.9322 44.9362 22.1547 45.1702C22.3771 45.4042 22.5475 45.6877 22.6658 46.0198C22.7844 46.3523 22.8436 46.715 22.8436 47.1083V49.1728H24.4057Z" fill="#646460"/>
<path fill-rule="evenodd" clip-rule="evenodd" d="M33.3113 47.9645C33.3113 47.4774 33.2546 47.0697 33.1409 46.7418C33.0273 46.4138 32.8711 46.1516 32.6723 45.9544C32.4734 45.7577 32.2342 45.6175 31.9549 45.533C31.6756 45.4487 31.3749 45.4065 31.0533 45.4065C30.6649 45.4065 30.2744 45.4955 29.8817 45.6736C29.4883 45.8517 29.1264 46.1046 28.7949 46.4324C28.4634 46.7607 28.1794 47.1564 27.9428 47.6202C27.7061 48.084 27.5544 48.6017 27.4884 49.1733H33.3113V47.9645ZM24.2076 50.2934C23.99 50.2934 23.8809 50.2105 23.8809 50.0444V49.5052C23.8809 49.2839 23.99 49.1733 24.2076 49.1733H26.3663V40.2534H27.5024V46.9746C27.7675 46.4642 28.0493 46.0347 28.3477 45.6864C28.6459 45.3381 28.9536 45.0619 29.2709 44.8574C29.588 44.6532 29.9121 44.5071 30.2436 44.4185C30.5751 44.3304 30.9064 44.2862 31.2378 44.2862C31.7679 44.2862 32.2342 44.377 32.6368 44.5586C33.0392 44.7403 33.3774 44.9871 33.6522 45.2991C33.9268 45.6112 34.1327 45.9814 34.27 46.4097C34.4071 46.8381 34.4759 47.2992 34.4759 47.7928V50.2934H24.2076Z" fill="#646460"/>
<path fill-rule="evenodd" clip-rule="evenodd" d="M44.6293 49.1734C44.8472 49.1734 44.9559 49.2565 44.9559 49.4225V49.9616C44.9559 50.1829 44.8472 50.2935 44.6293 50.2935H44.3595C44.1984 50.2935 44.0374 50.2842 43.8765 50.266C43.7156 50.2477 43.5592 50.2036 43.408 50.1345C43.2563 50.0652 43.1167 49.9641 42.9889 49.8303C42.8611 49.6966 42.7591 49.5193 42.6835 49.2978V50.3497C42.6835 50.7509 42.6284 51.1269 42.5181 51.4769C42.4077 51.827 42.2447 52.1325 42.0292 52.3941C41.8136 52.6553 41.5464 52.8606 41.2287 53.0101C40.911 53.1594 40.5484 53.2342 40.1413 53.2342C39.9235 53.2342 39.7223 53.2247 39.5379 53.206C39.3532 53.1874 39.2087 53.1688 39.1045 53.1501L39.2323 52.044L39.5591 52.0999C39.6536 52.1186 39.7529 52.1301 39.8573 52.135C39.9613 52.1396 40.056 52.1419 40.1413 52.1419C40.6904 52.1419 41.0622 51.983 41.2562 51.6659C41.4502 51.3484 41.5474 50.8676 41.5474 50.2236V44.9727H42.6835V47.5156C42.6835 47.7498 42.7094 47.9676 42.7616 48.1688C42.8136 48.37 42.9038 48.5457 43.0317 48.6959C43.1595 48.8456 43.3274 48.9627 43.5358 49.0468C43.7438 49.1313 44.0044 49.1734 44.3167 49.1734H44.6293Z" fill="#646460"/>
<path fill-rule="evenodd" clip-rule="evenodd" d="M44.4164 50.2938C44.1988 50.2938 44.0898 50.2109 44.0898 50.0447V49.5053C44.0898 49.2843 44.1988 49.1737 44.4164 49.1737H46.7597C47.1006 49.1737 47.3281 49.0778 47.4418 48.8865C47.5552 48.6951 47.6119 48.4361 47.6119 48.1093V46.3728H48.7482V47.5211C48.7482 47.7452 48.7739 47.9577 48.8257 48.1583C48.8775 48.3591 48.9671 48.5342 49.0943 48.6835C49.2211 48.8328 49.3884 48.9518 49.596 49.0403C49.8031 49.1293 50.0621 49.1737 50.373 49.1737H50.6416C50.99 49.1737 51.2185 49.0778 51.3268 48.8865C51.4351 48.6951 51.4894 48.4361 51.4894 48.1093V45.7848H52.6253V47.5211C52.6253 47.7547 52.6514 47.9717 52.7036 48.1723C52.7553 48.3731 52.8458 48.5482 52.9734 48.6975C53.1014 48.8468 53.2667 48.9635 53.4703 49.0476C53.6738 49.1315 53.9319 49.1737 54.2445 49.1737H54.5994C54.9687 49.1737 55.2079 49.0776 55.3167 48.8855C55.4254 48.6936 55.4801 48.4335 55.4801 48.1058V44.9727H56.588V47.5158C56.588 47.7498 56.6141 47.9678 56.6661 48.169C56.7179 48.3703 56.8079 48.5459 56.9359 48.6959C57.0635 48.8458 57.2294 48.9629 57.4328 49.047C57.6363 49.1315 57.8944 49.1737 58.2072 49.1737H58.5334C58.7514 49.1737 58.8601 49.2567 58.8601 49.4225V49.9617C58.8601 50.1831 58.7514 50.2938 58.5334 50.2938H58.1643C57.7571 50.2938 57.402 50.2178 57.0993 50.0654C56.7962 49.9134 56.5783 49.63 56.4458 49.2152C56.3414 49.464 56.2259 49.6602 56.0978 49.803C55.9702 49.9459 55.8304 50.0541 55.6788 50.128C55.5273 50.2016 55.3689 50.2478 55.203 50.266C55.0374 50.2844 54.8647 50.2938 54.6849 50.2938H54.202C53.7757 50.2938 53.4229 50.22 53.144 50.0725C52.8645 49.9252 52.6442 49.6391 52.4832 49.2152C52.2664 49.6575 52.0091 49.9481 51.7117 50.0865C51.4144 50.2245 51.0864 50.2938 50.7279 50.2938H50.3313C49.9067 50.2938 49.5501 50.2178 49.2624 50.0654C48.9747 49.9134 48.755 49.63 48.6046 49.2152C48.4985 49.4547 48.3814 49.6462 48.2521 49.789C48.1224 49.9321 47.9784 50.0403 47.8205 50.114C47.6625 50.188 47.4936 50.2362 47.3137 50.2591C47.1339 50.2822 46.9444 50.2938 46.7457 50.2938H44.4164Z" fill="#646460"/>
<path fill-rule="evenodd" clip-rule="evenodd" d="M60.3521 42.2979C60.3521 42.1207 60.4162 41.9689 60.544 41.8429C60.6718 41.7168 60.8256 41.6538 61.0056 41.6538C61.1852 41.6538 61.3391 41.7168 61.467 41.8429C61.5948 41.9689 61.6587 42.1207 61.6587 42.2979C61.6587 42.4754 61.5948 42.627 61.467 42.753C61.3391 42.8791 61.1852 42.9421 61.0056 42.9421C60.8256 42.9421 60.6718 42.8791 60.544 42.753C60.4162 42.627 60.3521 42.4754 60.3521 42.2979ZM58.3354 50.2935C58.1177 50.2935 58.0088 50.2106 58.0088 50.0442V49.5051C58.0088 49.284 58.1177 49.1734 58.3354 49.1734H60.4657V44.9724H61.602V50.2935H58.3354Z" fill="#646460"/>
<path fill-rule="evenodd" clip-rule="evenodd" d="M72.9484 49.1731C73.1663 49.1731 73.2752 49.2562 73.2752 49.4221V49.9613C73.2752 50.1826 73.1663 50.2932 72.9484 50.2932H72.5933C72.404 50.2932 72.2217 50.2772 72.0466 50.2448C71.8713 50.2127 71.7079 50.1552 71.5567 50.0721C71.405 49.9891 71.2702 49.8782 71.1518 49.7402C71.0334 49.6018 70.941 49.4268 70.8748 49.2146C70.7706 49.4543 70.6549 49.6456 70.5271 49.7885C70.3992 49.9315 70.2593 50.0397 70.108 50.1137C69.9563 50.1874 69.7954 50.2356 69.6251 50.2585C69.4547 50.2818 69.2792 50.2932 69.0996 50.2932H63.1631V49.1731H66.2592V43.0397H67.3952V49.1731H69.0334C69.3817 49.1731 69.6101 49.077 69.7184 48.8856C69.8267 48.6939 69.8807 48.4343 69.8807 48.1071V40.2534H71.017V47.5181C71.017 47.7519 71.0429 47.9695 71.0949 48.1703C71.1469 48.3713 71.2371 48.5466 71.3649 48.6961C71.4928 48.8461 71.6584 48.9628 71.8621 49.0469C72.0655 49.1309 72.3237 49.1731 72.6358 49.1731H72.9484Z" fill="#646460"/>
<path fill-rule="evenodd" clip-rule="evenodd" d="M75.0787 52.5482C75.0787 52.3707 75.1428 52.2191 75.2705 52.0931C75.3983 51.967 75.5522 51.904 75.732 51.904C75.9119 51.904 76.0658 51.967 76.1936 52.0931C76.3215 52.2191 76.3854 52.3707 76.3854 52.5482C76.3854 52.7255 76.3215 52.8772 76.1936 53.0033C76.0658 53.1293 75.9119 53.1923 75.732 53.1923C75.5522 53.1923 75.3983 53.1293 75.2705 53.0033C75.1428 52.8772 75.0787 52.7255 75.0787 52.5482ZM73.1898 52.5482C73.1898 52.3707 73.2537 52.2191 73.3816 52.0931C73.5094 51.967 73.6631 51.904 73.8432 51.904C74.0228 51.904 74.1769 51.967 74.3045 52.0931C74.4324 52.2191 74.4965 52.3707 74.4965 52.5482C74.4965 52.7255 74.4324 52.8772 74.3045 53.0033C74.1769 53.1293 74.0228 53.1923 73.8432 53.1923C73.6631 53.1923 73.5094 53.1293 73.3816 53.0033C73.2537 52.8772 73.1898 52.7255 73.1898 52.5482ZM72.7496 50.2938C72.5318 50.2938 72.4229 50.2109 72.4229 50.0447V49.5054C72.4229 49.2843 72.5318 49.1737 72.7496 49.1737H74.8798V44.9727H76.0163V50.2938H72.7496Z" fill="#646460"/>
<path fill-rule="evenodd" clip-rule="evenodd" d="M82.6196 49.1734C82.8372 49.1734 82.9461 49.2565 82.9461 49.4225V49.9616C82.9461 50.1829 82.8372 50.2935 82.6196 50.2935H82.3497C82.1884 50.2935 82.0277 50.2842 81.8668 50.266C81.7057 50.2477 81.5495 50.2036 81.3982 50.1345C81.2465 50.0652 81.107 49.9641 80.9792 49.8303C80.8513 49.6966 80.7494 49.5193 80.6738 49.2978V50.3497C80.6738 50.7509 80.6185 51.1269 80.5083 51.4769C80.3978 51.827 80.235 52.1325 80.0194 52.3941C79.8036 52.6553 79.5367 52.8606 79.2189 53.0101C78.901 53.1594 78.5387 53.2342 78.1316 53.2342C77.9137 53.2342 77.7125 53.2247 77.528 53.206C77.3432 53.1874 77.1989 53.1688 77.0947 53.1501L77.2226 52.044L77.5491 52.0999C77.6437 52.1186 77.7431 52.1301 77.8473 52.135C77.9515 52.1396 78.0463 52.1419 78.1316 52.1419C78.6805 52.1419 79.0523 51.983 79.2465 51.6659C79.4403 51.3484 79.5377 50.8676 79.5377 50.2236V44.9727H80.6738V47.5156C80.6738 47.7498 80.6997 47.9676 80.7519 48.1688C80.8039 48.37 80.8941 48.5457 81.0219 48.6959C81.1495 48.8456 81.3174 48.9627 81.526 49.0468C81.734 49.1313 81.9946 49.1734 82.307 49.1734H82.6196Z" fill="#646460"/>
<path fill-rule="evenodd" clip-rule="evenodd" d="M86.4693 42.2979C86.4693 42.1207 86.5335 41.9689 86.6613 41.8429C86.7891 41.7168 86.9428 41.6538 87.1229 41.6538C87.3025 41.6538 87.4566 41.7168 87.5845 41.8429C87.7121 41.9689 87.776 42.1207 87.776 42.2979C87.776 42.4754 87.7121 42.627 87.5845 42.753C87.4566 42.8791 87.3025 42.9421 87.1229 42.9421C86.9428 42.9421 86.7891 42.8791 86.6613 42.753C86.5335 42.627 86.4693 42.4754 86.4693 42.2979ZM88.4579 49.1734V46.9664C88.4579 46.7978 88.4293 46.6266 88.3728 46.4533C88.3161 46.2801 88.2269 46.1231 88.1042 45.9827C87.9817 45.842 87.8239 45.7273 87.6305 45.6382C87.4371 45.5492 87.2088 45.5045 86.9447 45.5045C86.7184 45.5045 86.4994 45.5466 86.2871 45.6309C86.075 45.7154 85.8888 45.8396 85.7287 46.0035C85.5682 46.1677 85.4385 46.362 85.3396 46.5869C85.2406 46.8118 85.1913 47.0649 85.1913 47.3459C85.1913 47.7769 85.2759 48.1143 85.4459 48.358C85.6154 48.6016 85.8086 48.7845 86.0256 48.9059C86.2517 49.0374 86.5298 49.1264 86.8596 49.1734H88.4579ZM82.4166 50.2935C82.199 50.2935 82.0898 50.2106 82.0898 50.0442V49.5051C82.0898 49.284 82.199 49.1734 82.4166 49.1734H84.7884C84.5774 48.9859 84.4023 48.7355 84.2636 48.422C84.1244 48.1084 84.055 47.755 84.055 47.3615C84.055 46.9964 84.1281 46.6359 84.2751 46.2801C84.4218 45.9243 84.6302 45.6108 84.9 45.3393C85.1699 45.0678 85.4917 44.8478 85.8657 44.6792C86.2398 44.5108 86.6539 44.4263 87.1085 44.4263C87.4871 44.4263 87.8305 44.4893 88.1381 44.6154C88.4458 44.7414 88.7086 44.9189 88.9265 45.1474C89.1443 45.3762 89.31 45.6493 89.4236 45.9664C89.5373 46.2842 89.594 46.6388 89.594 47.0306V50.2935H82.4166Z" fill="#646460"/>
<path fill-rule="evenodd" clip-rule="evenodd" d="M7.91385 59.8783H5.39035V66.5768H4.48444V59.8783H1.96094V59.049H7.91385V59.8783Z" fill="#646460"/>
<path fill-rule="evenodd" clip-rule="evenodd" d="M12.237 65.3963C12.237 65.623 12.244 65.8358 12.2583 66.0341C12.2727 66.2327 12.2801 66.4134 12.2801 66.5763H11.4819C11.4819 66.4418 11.4784 66.3071 11.4712 66.1723C11.4638 66.0378 11.4605 65.8996 11.4605 65.7577H11.4388C11.3812 65.8783 11.3002 65.9952 11.1962 66.1087C11.0921 66.222 10.9679 66.3231 10.8243 66.4116C10.6804 66.5002 10.5187 66.5711 10.339 66.6244C10.1592 66.6772 9.96481 66.704 9.75662 66.704C9.42574 66.704 9.14008 66.6544 8.89922 66.5553C8.65815 66.4558 8.45859 66.3178 8.30076 66.1405C8.14231 65.9634 8.02578 65.7488 7.95015 65.4972C7.87452 65.2457 7.83691 64.9708 7.83691 64.6733V61.6005H8.67829V64.5882C8.67829 65.0133 8.77159 65.3448 8.95861 65.5823C9.14542 65.82 9.43664 65.9385 9.83204 65.9385C10.1052 65.9385 10.3405 65.8923 10.5384 65.8001C10.7359 65.7081 10.8976 65.577 11.0238 65.4068C11.1494 65.2368 11.2429 65.0348 11.3041 64.8008C11.3652 64.5667 11.3956 64.3082 11.3956 64.0245V61.6005H12.237V65.3963Z" fill="#646460"/>
<path fill-rule="evenodd" clip-rule="evenodd" d="M19.2483 66.5765H18.4178L16.9835 62.7488H16.962L15.6894 66.5765H14.8267L13.1875 61.6005H14.1148L15.2689 65.4283H15.2903L16.5953 61.6005H17.4797L18.8063 65.4283H18.8276L19.9709 61.6005H20.8766L19.2483 66.5765Z" fill="#646460"/>
<path fill-rule="evenodd" clip-rule="evenodd" d="M24.1971 64.1844C23.6578 64.1844 23.2299 64.2594 22.9136 64.4089C22.5974 64.5588 22.4391 64.8048 22.4391 65.1471C22.4391 65.4607 22.5452 65.6834 22.7572 65.8153C22.9691 65.9472 23.2336 66.0131 23.5501 66.0131C23.7943 66.0131 24.0082 65.9723 24.1917 65.8903C24.3748 65.8082 24.5275 65.6996 24.65 65.5641C24.7721 65.4287 24.8656 65.2699 24.9304 65.0881C24.9951 64.9063 25.0311 64.712 25.0382 64.5051V64.1844H24.1971ZM21.7599 62.2386C22.0184 61.9766 22.3261 61.7831 22.6818 61.6591C23.0376 61.5353 23.3989 61.4731 23.7655 61.4731C24.5206 61.4731 25.0615 61.6469 25.3886 61.994C25.7158 62.3413 25.8794 62.8696 25.8794 63.5783V65.7156C25.8794 65.8575 25.8864 66.0044 25.901 66.1567C25.9152 66.3091 25.9333 66.4491 25.9548 66.5768H25.1459C25.1174 66.4633 25.1009 66.3375 25.0974 66.1991C25.0937 66.0611 25.0921 65.9387 25.0921 65.8325H25.0705C24.9051 66.0876 24.6839 66.2968 24.4073 66.4597C24.1305 66.6228 23.7982 66.7044 23.4098 66.7044C23.151 66.7044 22.9083 66.6724 22.6818 66.609C22.4553 66.5454 22.2574 66.4518 22.0887 66.3282C21.9198 66.2046 21.785 66.051 21.6843 65.8672C21.5836 65.6834 21.5332 65.4715 21.5332 65.2312C21.5332 64.8216 21.6411 64.5003 21.8567 64.2669C22.0725 64.0338 22.3403 63.8606 22.6602 63.7477C22.98 63.6347 23.3253 63.5638 23.6956 63.5356C24.0658 63.5074 24.4055 63.4932 24.7148 63.4932H25.0382V63.3431C25.0382 62.9786 24.9285 62.7032 24.7092 62.5172C24.4899 62.3316 24.1825 62.2386 23.7873 62.2386C23.5139 62.2386 23.2462 62.283 22.9839 62.3715C22.7213 62.4603 22.4893 62.5966 22.2883 62.7808L21.7599 62.2386Z" fill="#646460"/>
<path fill-rule="evenodd" clip-rule="evenodd" d="M27.4967 66.5766H28.3381V61.6006H27.4967V66.5766ZM27.3027 59.6546C27.3027 59.4919 27.3621 59.3501 27.4807 59.2295C27.5993 59.1089 27.7448 59.0488 27.9174 59.0488C28.0901 59.0488 28.2356 59.1089 28.3541 59.2295C28.4727 59.3501 28.5321 59.4919 28.5321 59.6546C28.5321 59.8319 28.4746 59.9774 28.3597 60.0907C28.2446 60.2041 28.097 60.2609 27.9174 60.2609C27.7376 60.2609 27.5902 60.2041 27.4754 60.0907C27.3603 59.9774 27.3027 59.8319 27.3027 59.6546Z" fill="#646460"/>
<path fill-rule="evenodd" clip-rule="evenodd" d="M34.2041 64.0885C34.2041 63.8263 34.1626 63.5836 34.08 63.3603C33.9974 63.137 33.8768 62.9421 33.7189 62.7755C33.5605 62.609 33.3718 62.4779 33.1527 62.3821C32.9332 62.2862 32.687 62.2386 32.4139 62.2386C32.1406 62.2386 31.8944 62.2862 31.6751 62.3821C31.4558 62.4779 31.2671 62.609 31.1089 62.7755C30.9509 62.9421 30.8302 63.137 30.7478 63.3603C30.665 63.5836 30.6237 63.8263 30.6237 64.0885C30.6237 64.3509 30.665 64.5937 30.7478 64.817C30.8302 65.0401 30.9509 65.2352 31.1089 65.4015C31.2671 65.5685 31.4558 65.6994 31.6751 65.7952C31.8944 65.8909 32.1406 65.9387 32.4139 65.9387C32.687 65.9387 32.9332 65.8909 33.1527 65.7952C33.3718 65.6994 33.5605 65.5685 33.7189 65.4015C33.8768 65.2352 33.9974 65.0401 34.08 64.817C34.1626 64.5937 34.2041 64.3509 34.2041 64.0885ZM35.0453 69.0007H34.2041V65.8536H34.1826C33.9522 66.1231 33.6846 66.332 33.379 66.4809C33.0734 66.6298 32.7374 66.7042 32.3708 66.7042C31.9751 66.7042 31.6138 66.6386 31.2871 66.5075C30.9597 66.3764 30.681 66.194 30.451 65.9598C30.2209 65.7259 30.0413 65.4496 29.912 65.1306C29.7825 64.8115 29.7178 64.4642 29.7178 64.0885C29.7178 63.7202 29.7825 63.3761 29.912 63.0572C30.0413 62.7383 30.2192 62.4619 30.4459 62.2279C30.6722 61.994 30.9381 61.8098 31.2439 61.6751C31.5493 61.5406 31.8816 61.4731 32.2413 61.4731C32.6942 61.4731 33.0915 61.5705 33.4331 61.7655C33.7744 61.9604 34.0243 62.1997 34.1826 62.4832H34.2041V61.6007H35.0453V69.0007Z" fill="#646460"/>
<path fill-rule="evenodd" clip-rule="evenodd" d="M39.5537 59.0488H44.2879V59.8781H40.4594V62.3659H44.0183V63.1955H40.4594V66.5764H39.5537V59.0488Z" fill="#646460"/>
<path fill-rule="evenodd" clip-rule="evenodd" d="M45.3986 62.7808C45.3986 62.5541 45.3914 62.3413 45.3773 62.143C45.3627 61.9446 45.3555 61.7636 45.3555 61.6007H46.1537C46.1537 61.7355 46.157 61.87 46.1644 62.0048C46.1716 62.1393 46.1751 62.2777 46.1751 62.4193H46.1968C46.2542 62.2988 46.3352 62.1819 46.4394 62.0684C46.5433 61.9551 46.6675 61.8542 46.8113 61.7655C46.9552 61.6769 47.1169 61.606 47.2966 61.5527C47.4762 61.4996 47.6706 61.4731 47.879 61.4731C48.0085 61.4731 48.1233 61.4909 48.2243 61.5264L48.1702 62.366C48.0263 62.3237 47.8755 62.3024 47.7172 62.3024C47.1998 62.3024 46.8241 62.4672 46.5904 62.7968C46.3565 63.1263 46.24 63.5783 46.24 64.1526V66.5766H45.3986V62.7808Z" fill="#646460"/>
<path fill-rule="evenodd" clip-rule="evenodd" d="M52.7856 63.6527C52.7712 63.2244 52.6327 62.8815 52.3702 62.6244C52.1078 62.3673 51.7395 62.2386 51.265 62.2386C50.7904 62.2386 50.4111 62.3673 50.127 62.6244C49.8432 62.8815 49.6724 63.2244 49.6149 63.6527H52.7856ZM53.5082 65.6731C53.2061 66.0556 52.8754 66.3235 52.5159 66.4759C52.1563 66.628 51.7395 66.7044 51.265 66.7044C50.8696 66.7044 50.5136 66.6353 50.1973 66.4969C49.8808 66.3585 49.613 66.1727 49.394 65.9387C49.1745 65.7049 49.0055 65.4285 48.887 65.1094C48.7684 64.7904 48.709 64.4502 48.709 64.0886C48.709 63.706 48.7737 63.3532 48.9032 63.0309C49.0325 62.7083 49.2121 62.4319 49.4423 62.2015C49.6724 61.9711 49.9456 61.792 50.2621 61.6644C50.5783 61.5369 50.9234 61.4731 51.2974 61.4731C51.6495 61.4731 51.973 61.5314 52.2679 61.6484C52.5626 61.7657 52.816 61.9355 53.0283 62.159C53.2402 62.3821 53.4038 62.6552 53.5189 62.9776C53.6337 63.3003 53.6913 63.6669 53.6913 64.0782V64.3439H49.6149C49.6293 64.5566 49.6815 64.7605 49.7713 64.9554C49.8613 65.1503 49.978 65.3203 50.1219 65.4656C50.2656 65.6109 50.4347 65.726 50.6287 65.8111C50.8227 65.8962 51.0346 65.9387 51.265 65.9387C51.6316 65.9387 51.9407 65.8751 52.1923 65.7474C52.444 65.6198 52.6703 65.4319 52.8719 65.1839L53.5082 65.6731Z" fill="#646460"/>
<path fill-rule="evenodd" clip-rule="evenodd" d="M58.7826 63.6527C58.7682 63.2244 58.6297 62.8815 58.3673 62.6244C58.1048 62.3673 57.7366 62.2386 57.262 62.2386C56.7875 62.2386 56.4081 62.3673 56.1241 62.6244C55.8403 62.8815 55.6695 63.2244 55.612 63.6527H58.7826ZM59.5052 65.6731C59.2031 66.0556 58.8724 66.3235 58.513 66.4759C58.1533 66.628 57.7366 66.7044 57.262 66.7044C56.8666 66.7044 56.5107 66.6353 56.1944 66.4969C55.8779 66.3585 55.6101 66.1727 55.391 65.9387C55.1715 65.7049 55.0026 65.4285 54.884 65.1094C54.7654 64.7904 54.7061 64.4502 54.7061 64.0886C54.7061 63.706 54.7708 63.3532 54.9003 63.0309C55.0295 62.7083 55.2092 62.4319 55.4393 62.2015C55.6695 61.9711 55.9426 61.792 56.2591 61.6644C56.5754 61.5369 56.9205 61.4731 57.2945 61.4731C57.6466 61.4731 57.97 61.5314 58.2649 61.6484C58.5596 61.7657 58.8131 61.9355 59.0253 62.159C59.2372 62.3821 59.4008 62.6552 59.5159 62.9776C59.6308 63.3003 59.6883 63.6669 59.6883 64.0782V64.3439H55.612C55.6263 64.5566 55.6785 64.7605 55.7684 64.9554C55.8584 65.1503 55.9751 65.3203 56.119 65.4656C56.2626 65.6109 56.4318 65.726 56.6258 65.8111C56.8198 65.8962 57.0316 65.9387 57.262 65.9387C57.6287 65.9387 57.9378 65.8751 58.1893 65.7474C58.4411 65.6198 58.6673 65.4319 58.8689 65.1839L59.5052 65.6731Z" fill="#646460"/>
<path fill-rule="evenodd" clip-rule="evenodd" d="M61.0674 66.5763H61.9088V58.538H61.0674V66.5763Z" fill="#646460"/>
<path fill-rule="evenodd" clip-rule="evenodd" d="M65.9539 64.1844C65.4146 64.1844 64.9868 64.2594 64.6705 64.4089C64.3542 64.5588 64.1959 64.8048 64.1959 65.1471C64.1959 65.4607 64.302 65.6834 64.5141 65.8153C64.726 65.9472 64.9905 66.0131 65.3069 66.0131C65.5511 66.0131 65.765 65.9723 65.9486 65.8903C66.1317 65.8082 66.2844 65.6996 66.4069 65.5641C66.5289 65.4287 66.6224 65.2699 66.6872 65.0881C66.7519 64.9063 66.7879 64.712 66.7951 64.5051V64.1844H65.9539ZM63.5167 62.2386C63.7753 61.9766 64.0829 61.7831 64.4387 61.6591C64.7944 61.5353 65.1557 61.4731 65.5223 61.4731C66.2774 61.4731 66.8183 61.6469 67.1455 61.994C67.4726 62.3413 67.6362 62.8696 67.6362 63.5783V65.7156C67.6362 65.8575 67.6432 66.0044 67.6578 66.1567C67.672 66.3091 67.6901 66.4491 67.7117 66.5768H66.9028C66.8742 66.4633 66.8577 66.3375 66.8543 66.1991C66.8506 66.0611 66.8489 65.9387 66.8489 65.8325H66.8273C66.6619 66.0876 66.4408 66.2968 66.1641 66.4597C65.8873 66.6228 65.555 66.7044 65.1666 66.7044C64.9078 66.7044 64.6651 66.6724 64.4387 66.609C64.2122 66.5454 64.0143 66.4518 63.8455 66.3282C63.6766 66.2046 63.5418 66.051 63.4411 65.8672C63.3404 65.6834 63.29 65.4715 63.29 65.2312C63.29 64.8216 63.3979 64.5003 63.6135 64.2669C63.8293 64.0338 64.0971 63.8606 64.4171 63.7477C64.7369 63.6347 65.0821 63.5638 65.4525 63.5356C65.8226 63.5074 66.1623 63.4932 66.4716 63.4932H66.7951V63.3431C66.7951 62.9786 66.6853 62.7032 66.466 62.5172C66.2468 62.3316 65.9393 62.2386 65.5441 62.2386C65.2708 62.2386 65.003 62.283 64.7408 62.3715C64.4781 62.4603 64.2461 62.5966 64.0451 62.7808L63.5167 62.2386Z" fill="#646460"/>
<path fill-rule="evenodd" clip-rule="evenodd" d="M69.1779 62.7808C69.1779 62.5541 69.1707 62.3413 69.1566 62.143C69.142 61.9446 69.1348 61.7636 69.1348 61.6007H69.933C69.933 61.7355 69.9363 61.87 69.9437 62.0048C69.9509 62.1393 69.9544 62.2777 69.9544 62.4193H69.9761C70.0335 62.2988 70.1145 62.1819 70.2186 62.0684C70.3226 61.9551 70.4468 61.8542 70.5906 61.7655C70.7345 61.6769 70.8962 61.606 71.0758 61.5527C71.2555 61.4996 71.4499 61.4731 71.6583 61.4731C71.9889 61.4731 72.2746 61.5227 72.5157 61.6218C72.7565 61.7213 72.9561 61.8595 73.1141 62.0366C73.2724 62.2139 73.3891 62.4282 73.4645 62.6799C73.5404 62.9316 73.578 63.2061 73.578 63.5038V66.5766H72.7366V63.5889C72.7366 63.1636 72.6431 62.8323 72.4563 62.5948C72.2693 62.3573 71.9783 62.2386 71.5828 62.2386C71.3095 62.2386 71.0742 62.2848 70.8765 62.3768C70.6788 62.469 70.5171 62.6001 70.3911 62.7701C70.2653 62.9403 70.1718 63.1423 70.1107 63.3761C70.0495 63.6101 70.0193 63.8689 70.0193 64.1526V66.5766H69.1779V62.7808Z" fill="#646460"/>
<path fill-rule="evenodd" clip-rule="evenodd" d="M78.7654 62.8446C78.5856 62.6321 78.3916 62.4779 78.183 62.3823C77.9744 62.2864 77.7444 62.2388 77.4928 62.2388C77.2123 62.2388 76.9643 62.2864 76.7487 62.3823C76.5331 62.4779 76.3549 62.6108 76.215 62.781C76.0746 62.951 75.9685 63.1478 75.8966 63.3711C75.8247 63.5944 75.7889 63.8337 75.7889 64.0888C75.7889 64.3439 75.8302 64.5832 75.9128 64.8065C75.9953 65.0297 76.1106 65.2265 76.2581 65.3967C76.4053 65.5667 76.5832 65.6996 76.7916 65.7955C77.0002 65.8909 77.2339 65.9389 77.4928 65.9389C78.0463 65.9389 78.4742 65.7333 78.7761 65.3221L79.4017 65.9069C79.1571 66.1835 78.8694 66.3855 78.5387 66.5129C78.208 66.6404 77.8595 66.7044 77.4928 66.7044C77.1046 66.7044 76.7487 66.6404 76.425 66.5129C76.1015 66.3855 75.8265 66.2046 75.6003 65.9707C75.3736 65.7367 75.1975 65.4603 75.0717 65.1414C74.9459 64.8225 74.8828 64.4715 74.8828 64.0888C74.8828 63.7131 74.9459 63.3656 75.0717 63.0467C75.1975 62.7277 75.3754 62.4514 75.6056 62.2173C75.8356 61.9835 76.1106 61.8011 76.4305 61.6698C76.7503 61.5387 77.1046 61.4731 77.4928 61.4731C77.8665 61.4731 78.2208 61.5369 78.5551 61.6646C78.8895 61.7922 79.1822 61.9906 79.4339 62.2599L78.7654 62.8446Z" fill="#646460"/>
<path fill-rule="evenodd" clip-rule="evenodd" d="M84.1576 63.6527C84.1432 63.2244 84.0047 62.8815 83.7423 62.6244C83.4798 62.3673 83.1116 62.2386 82.637 62.2386C82.1625 62.2386 81.7831 62.3673 81.4991 62.6244C81.2153 62.8815 81.0445 63.2244 80.987 63.6527H84.1576ZM84.8802 65.6731C84.5781 66.0556 84.2474 66.3235 83.888 66.4759C83.5283 66.628 83.1116 66.7044 82.637 66.7044C82.2416 66.7044 81.8857 66.6353 81.5694 66.4969C81.2529 66.3585 80.9851 66.1727 80.766 65.9387C80.5465 65.7049 80.3776 65.4285 80.259 65.1094C80.1404 64.7904 80.0811 64.4502 80.0811 64.0886C80.0811 63.706 80.1458 63.3532 80.2753 63.0309C80.4045 62.7083 80.5842 62.4319 80.8143 62.2015C81.0445 61.9711 81.3176 61.792 81.6341 61.6644C81.9504 61.5369 82.2955 61.4731 82.6695 61.4731C83.0215 61.4731 83.345 61.5314 83.6399 61.6484C83.9346 61.7657 84.188 61.9355 84.4003 62.159C84.6122 62.3821 84.7758 62.6552 84.8909 62.9776C85.0058 63.3003 85.0633 63.6669 85.0633 64.0782V64.3439H80.987C81.0013 64.5566 81.0535 64.7605 81.1434 64.9554C81.2334 65.1503 81.3501 65.3203 81.494 65.4656C81.6376 65.6109 81.8068 65.726 82.0008 65.8111C82.1948 65.8962 82.4066 65.9387 82.637 65.9387C83.0037 65.9387 83.3128 65.8751 83.5643 65.7474C83.8161 65.6198 84.0423 65.4319 84.2439 65.1839L84.8802 65.6731Z" fill="#646460"/>
<path fill-rule="evenodd" clip-rule="evenodd" d="M86.3674 62.7808C86.3674 62.5541 86.3602 62.3413 86.346 62.143C86.3314 61.9446 86.3242 61.7636 86.3242 61.6007H87.1224C87.1224 61.7355 87.1257 61.87 87.1331 62.0048C87.1403 62.1393 87.1438 62.2777 87.1438 62.4193H87.1656C87.2229 62.2988 87.3039 62.1819 87.4081 62.0684C87.5121 61.9551 87.6362 61.8542 87.7801 61.7655C87.9239 61.6769 88.0857 61.606 88.2653 61.5527C88.4449 61.4996 88.6393 61.4731 88.8477 61.4731C88.9772 61.4731 89.0921 61.4909 89.193 61.5264L89.1389 62.366C88.9951 62.3237 88.8442 62.3024 88.686 62.3024C88.1685 62.3024 87.7928 62.4672 87.5591 62.7968C87.3253 63.1263 87.2088 63.5783 87.2088 64.1526V66.5766H86.3674V62.7808Z" fill="#646460"/>
</svg>
